HIERARCHY
ROOT Hips
{
	OFFSET 0.000000 0.000000 0.000000 
	CHANNELS 6 Xposition Yposition Zposition Yrotation Zrotation Xrotation 
	JOINT Lumbar
	{
		OFFSET 0.000000 0.000000 0.000000 
		CHANNELS 3 Zrotation Xrotation Yrotation
		JOINT Neck
		{
			OFFSET 0.000000 0.445665 0.000000 
			CHANNELS 3 Zrotation Xrotation Yrotation
			End Site
			{
				OFFSET 0.000000 0.227535 0.000000 
			}
		}
		JOINT RightShoulder
		{
			OFFSET 0.019635 0.377685 0.194865 
			CHANNELS 3 Zrotation Xrotation Yrotation
			JOINT RightElbow
			{
				OFFSET 0.000000 -0.243375 0.000000 
				CHANNELS 2 Zrotation Yrotation
				JOINT RightWrist
				{
					OFFSET 0.000000 -0.264825 0.000000 
					CHANNELS 2 Zrotation Xrotation
					End Site
					{
						OFFSET 0.006600 -0.176220 0.000990 
					}
				}
			}
		}
		JOINT LeftShoulder
		{
			OFFSET 0.019635 0.377685 -0.194865 
			CHANNELS 3 Zrotation Xrotation Yrotation
			JOINT LeftElbow
			{
				OFFSET 0.000000 -0.243375 0.000000 
				CHANNELS 2 Zrotation Yrotation
				JOINT LeftWrist
				{
					OFFSET 0.000000 -0.264825 0.000000 
					CHANNELS 2 Zrotation Xrotation
					End Site
					{
						OFFSET 0.006600 -0.176220 -0.000990 
					}
				}
			}
		}
	}
	JOINT RightHip
	{
		OFFSET 0.052140 -0.069960 0.075570 
		CHANNELS 3 Zrotation Xrotation Yrotation
		JOINT RightKnee
		{
			OFFSET 0.000000 -0.402270 0.000000 
			CHANNELS 1 Zrotation
			JOINT RightAnkle
			{
				OFFSET 0.000000 -0.404085 0.000000 
				CHANNELS 3 Zrotation Xrotation Yrotation
				End Site
				{
					OFFSET 0.204105 -0.089430 0.008415 
				}
			}
		}
	}
	JOINT LeftHip
	{
		OFFSET 0.052140 -0.069960 -0.075570 
		CHANNELS 3 Zrotation Xrotation Yrotation
		JOINT LeftKnee
		{
			OFFSET 0.000000 -0.402270 0.000000 
			CHANNELS 1 Zrotation
			JOINT LeftAnkle
			{
				OFFSET 0.000000 -0.404085 0.000000 
				CHANNELS 3 Zrotation Xrotation Yrotation
				End Site
				{
					OFFSET 0.204105 -0.089430 -0.008415 
				}
			}
		}
	}
}
MOTION
Frames: 34
Frame Time: 0.02
-0.00041 -3e-05 0.00012 26.05516 -30.079 -5.2952 50.19698 1.56788 -5.52674 0.69142 -0.67025 -0.47095 -19.52907 -9.8018 5.66646 35.15399 95.24111 8.89419 1.36377 -24.28523 11.44853 -10.52587 48.33849 -119.86514 21.40872 -3.54607 41.95659 -0.39588 -6.20774 -18.95862 -6.00168 -2.07844 -3.24795 45.89453 4.31741 10.93445 -24.60686 -6.58722 0.88033 2.67228
-0.00068 -5e-05 0.0001 26.05113 -30.07541 -5.30447 50.17515 1.57027 -5.49357 0.68509 -0.65744 -0.4719 -19.57208 -9.75083 5.59238 35.13518 95.25735 8.91394 1.36724 -24.34139 11.16042 -10.00198 48.35653 -121.2896 21.83429 -3.90066 41.9626 -0.44683 -6.50646 -18.96046 -6.00524 -2.06163 -3.23423 45.91377 4.28207 10.76917 -24.60946 -6.58146 0.89416 2.67983
-0.00095 -8e-05 9e-05 26.04711 -30.07183 -5.31372 50.15336 1.57267 -5.46047 0.6788 -0.64465 -0.47285 -19.61496 -9.70003 5.51855 35.11646 95.27353 8.93364 1.37071 -24.39725 10.87406 -9.48155 48.37453 -122.70191 22.25586 -4.25283 41.96861 -0.49764 -6.8044 -18.96229 -6.00879 -2.04484 -3.22055 45.93298 4.24681 10.60421 -24.61206 -6.57573 0.90796 2.68735
-0.00123 -0.0001 8e-05 26.04309 -30.06824 -5.32296 50.1316 1.57507 -5.42739 0.67249 -0.63188 -0.47379 -19.65783 -9.64921 5.4447 35.09771 95.28972 8.95333 1.37417 -24.45321 10.587 -8.95963 48.39251 -124.12045 22.6796 -4.60606 41.9746 -0.54844 -7.10222 -18.96413 -6.01234 -2.02807 -3.20687 45.95216 4.21157 10.43941 -24.61464 -6.56999 0.92174 2.69488
-0.0015 -0.00012 6e-05 26.03905 -30.06466 -5.33221 50.1098 1.57746 -5.39424 0.66615 -0.61908 -0.47474 -19.70084 -9.59824 5.3706 35.07887 95.30597 8.9731 1.37765 -24.50954 10.29781 -8.43341 48.41052 -125.55479 23.10858 -4.96234 41.98059 -0.59937 -7.40078 -18.96597 -6.0159 -2.0113 -3.19316 45.97136 4.17625 10.27435 -24.61722 -6.56424 0.93556 2.70242
-0.00177 -0.00015 5e-05 26.03506 -30.06108 -5.34147 50.08801 1.57987 -5.36126 0.65999 -0.60632 -0.47568 -19.74347 -9.54779 5.29733 35.06039 95.32201 8.99263 1.38108 -24.56439 10.01734 -7.92506 48.42853 -126.92119 23.51471 -5.30593 41.98663 -0.64995 -7.69741 -18.9678 -6.01945 -1.99448 -3.17952 45.9906 4.14111 10.10961 -24.61987 -6.55852 0.94932 2.70992
-0.00204 -0.00017 3e-05 26.031 -30.05748 -5.35069 50.06626 1.58223 -5.32798 0.65341 -0.5935 -0.47663 -19.78678 -9.49631 5.22245 35.04118 95.33844 9.0126 1.3846 -24.62211 9.71985 -7.38182 48.44649 -128.42063 23.96566 -5.67429 41.99255 -0.70116 -7.99756 -18.96964 -6.023 -1.97776 -3.16576 46.00971 4.10566 9.94442 -24.62235 -6.55274 0.96316 2.71749
-0.00232 -0.0002 2e-05 26.02698 -30.05393 -5.35995 50.04444 1.58465 -5.29495 0.64734 -0.58071 -0.47757 -19.8295 -9.44584 5.14912 35.02271 95.35456 9.03222 1.38803 -24.67727 9.43767 -6.86983 48.46456 -129.80132 24.37661 -6.0205 41.99862 -0.7518 -8.29452 -18.97148 -6.02655 -1.96096 -3.15211 46.02899 4.0705 9.77963 -24.62501 -6.54702 0.97694 2.725
-0.00259 -0.00022 0 26.02308 -30.05033 -5.36928 50.02265 1.58713 -5.26233 0.64142 -0.56807 -0.47852 -19.87138 -9.39638 5.07739 35.00486 95.37009 9.0512 1.39137 -24.72897 9.17577 -6.39983 48.48249 -131.0204 24.73305 -6.33679 42.00473 -0.80173 -8.58748 -18.97331 -6.03009 -1.94403 -3.13861 46.04828 4.03564 9.6153 -24.62783 -6.54137 0.99064 2.73245
-0.00286 -0.00025 -1e-05 26.01871 -30.04668 -5.37826 50.00101 1.58921 -5.22767 0.63322 -0.5549 -0.47946 -19.91775 -9.34042 4.99559 34.9826 95.3884 9.0732 1.39528 -24.7996 8.80188 -5.69963 48.50042 -133.11976 25.38619 -6.81669 42.01016 -0.85574 -8.90318 -18.97514 -6.03368 -1.92774 -3.12427 46.06695 3.99887 9.44823 -24.62955 -6.53531 1.00478 2.74028
-0.00313 -0.00027 -2e-05 26.0152 -30.04336 -5.38794 49.97885 1.59215 -5.19709 0.63074 -0.54266 -0.48041 -19.95487 -9.2986 4.93556 34.97017 95.40123 9.08925 1.39799 -24.83092 8.66122 -5.47767 48.51885 -133.39433 25.42444 -6.95694 42.01733 -0.90112 -9.17106 -18.977 -6.03718 -1.91014 -3.11169 46.08726 3.96627 9.28701 -24.63369 -6.53012 1.01798 2.74729
-0.00341 -0.00029 -2e-05 26.015 -30.039 -5.39981 49.95692 1.59734 -5.17986 0.63661 -0.53429 -0.4813 -19.96446 -9.29262 4.93157 34.98077 95.39552 9.08516 1.39741 -24.7484 9.19146 -6.64098 48.53468 -128.34889 23.6686 -6.11093 42.02689 -0.92259 -9.30511 -18.97869 -6.04032 -1.88872 -3.10407 46.10967 3.94392 9.14114 -24.64362 -6.52719 1.02877 2.75209
-0.00369 -0.00031 -1e-05 26.01552 -30.03535 -5.41235 49.93413 1.6034 -5.16638 0.64961 -0.52657 -0.4822 -19.9652 -9.30145 4.95008 35.00194 95.38482 9.0757 1.39563 -24.62776 9.94969 -8.26986 48.55184 -121.53293 21.3164 -4.93453 42.03867 -0.93537 -9.39151 -18.98046 -6.0434 -1.86603 -3.0982 46.13421 3.92594 9.0012 -24.65608 -6.52514 1.03859 2.75606
-0.00396 -0.00033 1e-05 26.01503 -30.03259 -5.42439 49.91068 1.6091 -5.14972 0.66412 -0.51776 -0.48312 -19.97134 -9.30536 4.96078 35.02092 95.37885 9.07126 1.39439 -24.5281 10.58401 -9.63956 48.5709 -115.72625 19.30514 -3.94388 42.05092 -0.95231 -9.50157 -18.98237 -6.04657 -1.84407 -3.09144 46.15932 3.90675 8.85908 -24.66794 -6.52274 1.04872 2.76039
-0.00425 -0.00035 -1e-05 26.01724 -30.0246 -5.4372 49.89174 1.61464 -5.13907 0.6585 -0.51249 -0.48391 -19.97144 -9.30141 4.96156 35.02905 95.36306 9.05628 1.39317 -24.41184 11.30645 -11.2159 48.57907 -109.03578 16.9921 -2.79962 42.05677 -0.96852 -9.60359 -18.98354 -6.04946 -1.82145 -3.08506 46.17784 3.88435 8.71504 -24.67761 -6.52012 1.05938 2.7648
-0.00451 -0.00036 4e-05 26.01424 -30.02783 -5.44862 49.8631 1.62074 -5.11709 0.69663 -0.49977 -0.48499 -19.98228 -9.31766 4.98807 35.06209 95.36583 9.06152 1.39163 -24.32249 11.89694 -12.46625 48.61064 -103.78679 15.17301 -1.90031 42.07668 -0.98398 -9.71041 -18.98626 -6.05293 -1.79991 -3.07834 46.21075 3.86961 8.57608 -24.69229 -6.51819 1.06876 2.76886
-0.00468 -0.00034 0.00025 25.99454 -30.0605 -5.45544 49.80879 1.62792 -5.06027 0.85232 -0.46843 -0.48681 -20.0233 -9.3833 5.08182 35.16283 95.42774 9.12806 1.38953 -24.30547 12.08879 -12.75449 48.7029 -102.76809 14.8028 -1.72862 42.13334 -1.00165 -9.84838 -18.99326 -6.05799 -1.78146 -3.06995 46.28158 3.87559 8.45312 -24.72166 -6.51793 1.07436 2.77202
-0.00481 -0.0003 0.00053 25.96993 -30.10472 -5.46089 49.74458 1.63571 -4.99232 1.05196 -0.42922 -0.48892 -20.07599 -9.46928 5.19997 35.28795 95.50772 9.21444 1.38721 -24.31917 12.13707 -12.69094 48.81918 -103.2839 14.95758 -1.81855 42.2044 -1.01856 -9.99201 -19.00181 -6.06366 -1.76415 -3.06119 46.36708 3.88905 8.33481 -24.75572 -6.51837 1.07878 2.77488
-0.00496 -0.00027 0.00078 25.949 -30.14452 -5.46742 49.68435 1.64335 -4.93135 1.23257 -0.39217 -0.49092 -20.12408 -9.54778 5.30631 35.401 95.57448 9.28891 1.3849 -24.32595 12.23542 -12.75142 48.92708 -103.23339 14.91763 -1.81071 42.26985 -1.03433 -10.1286 -19.00966 -6.06908 -1.74651 -3.05284 46.4467 3.8986 8.21162 -24.78668 -6.51849 1.08413 2.77798
-0.00511 -0.00024 0.001 25.92215 -30.18072 -5.47226 49.62635 1.65033 -4.86285 1.40984 -0.36097 -0.49283 -20.16785 -9.61936 5.41804 35.51877 95.66035 9.37506 1.38267 -24.3008 12.40097 -12.97044 49.02505 -102.61752 14.68928 -1.71012 42.33134 -1.05573 -10.28111 -19.01755 -6.07435 -1.72816 -3.04362 46.52301 3.91023 8.09872 -24.82185 -6.51855 1.08796 2.78067
-0.00525 -0.00021 0.00131 25.90627 -30.2273 -5.48003 49.56127 1.659 -4.80677 1.60389 -0.31592 -0.49499 -20.22481 -9.70996 5.5221 35.63214 95.7131 9.4421 1.38055 -24.35105 12.39554 -12.78096 49.14848 -103.50428 14.96373 -1.85915 42.40461 -1.06576 -10.40404 -19.02566 -6.08014 -1.7114 -3.03599 46.60977 3.91955 7.96741 -24.84929 -6.519 1.09447 2.78409
-0.0054 -0.00018 0.00179 25.92365 -30.29852 -5.49826 49.4798 1.67065 -4.79278 1.83786 -0.2327 -0.4978 -20.30486 -9.84791 5.6139 35.7295 95.65784 9.44977 1.3776 -24.59365 11.89854 -11.44696 49.344 -108.72147 16.6944 -2.72286 42.50558 -1.04087 -10.4295 -19.03447 -6.0866 -1.70034 -3.03372 46.72092 3.9181 7.76716 -24.85459 -6.51952 1.11039 2.7903
-0.00555 -0.00016 0.00236 25.95204 -30.38002 -5.51907 49.39143 1.68424 -4.79078 2.08624 -0.13622 -0.50085 -20.40017 -10.00393 5.6931 35.82125 95.57635 9.43923 1.37598 -24.91344 11.24241 -9.72873 49.56283 -115.311 18.88204 -3.81507 42.61816 -1.00521 -10.42739 -19.04338 -6.09367 -1.69062 -3.03291 46.84223 3.91451 7.55143 -24.85188 -6.52056 1.12872 2.79714
-0.00569 -0.00014 0.00289 25.97406 -30.45757 -5.53735 49.30575 1.6979 -4.77988 2.32533 -0.04691 -0.50377 -20.49493 -10.15217 5.76959 35.91398 95.50793 9.43645 1.37332 -25.20278 10.69506 -8.25395 49.76603 -120.90595 20.7313 -4.74401 42.72624 -0.97706 -10.44829 -19.05191 -6.10087 -1.67917 -3.03081 46.9594 3.91355 7.35378 -24.85258 -6.52188 1.14487 2.80326
-0.00584 -0.00012 0.00339 26.00117 -30.53241 -5.56138 49.22156 1.70753 -4.78291 2.57805 0.04783 -0.50679 -20.5616 -10.30068 5.88717 36.01373 95.41296 9.43094 1.3685 -25.47109 9.99318 -6.48509 49.99157 -128.08608 23.13914 -5.92724 42.83146 -0.93817 -10.42734 -19.06183 -6.10642 -1.67221 -3.03125 47.075 3.90586 7.10938 -24.85438 -6.52103 1.16564 2.81124
-0.00599 -9e-05 0.00399 26.02103 -30.61528 -5.57398 49.1328 1.72604 -4.76023 2.80456 0.13391 -0.50967 -20.69219 -10.45091 5.91007 36.09777 95.39484 9.43355 1.37348 -25.80432 9.57185 -5.23141 50.17549 -132.31221 24.49932 -6.63863 42.9453 -0.91867 -10.48414 -19.06894 -6.11548 -1.65654 -3.02689 47.19617 3.91159 6.95896 -24.85195 -6.52487 1.17728 2.81546
-0.00619 -7e-05 0.00486 26.01242 -30.71691 -5.55515 49.03278 1.76851 -4.66113 2.96037 0.19605 -0.51188 -20.97948 -10.61775 5.72851 36.13485 95.33656 9.39794 1.35938 -26.27116 10.01098 -5.58747 50.24132 -127.68025 22.73159 -5.93036 43.0792 -0.95894 -10.78664 -19.06772 -6.1347 -1.6137 -3.00751 47.32954 3.95475 7.06832 -24.83965 -6.54103 1.16383 2.8095
-0.00639 -5e-05 0.00583 25.99729 -30.82634 -5.52459 48.92856 1.8199 -4.53632 3.08801 0.24832 -0.51405 -21.33393 -10.78357 5.44506 36.15714 95.39156 9.37975 1.36136 -26.80586 10.73011 -6.46028 50.26394 -120.08726 19.91387 -4.7491 43.2214 -1.01842 -11.1638 -19.06375 -6.1573 -1.56257 -2.9835 47.46818 4.0114 7.273 -24.82334 -6.56197 1.14103 2.79969
-0.00659 -3e-05 0.00676 25.9889 -30.93276 -5.49892 48.82649 1.86722 -4.42492 3.22503 0.30308 -0.5163 -21.66756 -10.93774 5.16878 36.18928 95.58108 9.40053 1.38888 -27.32643 11.29077 -7.03629 50.30444 -114.08382 17.65543 -3.82338 43.36038 -1.06673 -11.49083 -19.06142 -6.17793 -1.51706 -2.96251 47.60487 4.06207 7.43686 -24.80894 -6.58106 1.12201 2.7914
-0.00681 -0 0.00768 25.96479 -31.0374 -5.47523 48.72299 1.91455 -4.30646 3.37743 0.36707 -0.51805 -21.95905 -11.13942 5.04435 36.20793 95.03862 9.23686 1.28709 -27.7777 11.97675 -7.85746 50.35284 -107.10568 15.06786 -2.73573 43.49771 -1.12495 -11.88523 -19.05753 -6.20042 -1.46379 -2.93771 47.74024 4.1124 7.59137 -24.79396 -6.59884 1.10487 2.78404
-0.00699 2e-05 0.00863 25.97193 -31.14733 -5.44455 48.62177 1.96411 -4.19668 3.49037 0.4089 -0.52113 -22.35624 -11.24701 4.59585 36.25137 95.98002 9.44405 1.44673 -28.39029 12.47137 -8.29924 50.37468 -101.42878 12.9089 -1.86841 43.63995 -1.16723 -12.15749 -19.05615 -6.21984 -1.42469 -2.91972 47.87925 4.16622 7.78602 -24.77924 -6.62042 1.08176 2.7739
-0.00705 4e-05 0.00962 26.06527 -31.2708 -5.39776 48.52631 2.01638 -4.11512 3.50556 0.39513 -0.52529 -23.00996 -11.04709 3.13291 36.36505 101.58712 10.82618 2.42711 -29.4154 12.36055 -7.53942 50.32892 -100.12766 12.20114 -1.73778 43.79628 -1.16105 -12.07404 -19.06313 -6.22981 -1.42665 -2.92162 48.02869 4.23029 8.08706 -24.76712 -6.65195 1.04282 2.75625
-0.00706 7e-05 0.01064 26.19061 -31.39902 -5.34424 48.43364 2.07081 -4.04359 3.48104 0.35869 -0.53125 -23.77107 -10.75996 1.37074 36.50407 108.58123 12.55437 3.65233 -30.60305 12.04991 -6.38715 50.25838 -100.22099 11.95691 -1.84177 43.95657 -1.13824 -11.86562 -19.0726 -6.23659 -1.44314 -2.93051 48.18113 4.2967 8.42188 -24.75528 -6.68701 0.99847 2.73605
-0.00708 0.0001 0.01165 26.30231 -31.52456 -5.29358 48.34074 2.12509 -3.96858 3.4719 0.33054 -0.5381 -24.49549 -10.54589 -0.15501 36.63333 114.53854 14.0196 4.69612 -31.72678 11.83709 -5.43446 50.20264 -99.62982 11.49063 -1.82882 44.11346 -1.12289 -11.71418 -19.08039 -6.24493 -1.45309 -2.93624 48.3312 4.35946 8.72882 -24.74275 -6.72002 0.95762 2.71751
